<?xml version="1.0" standalone="no"?>
<!DOCTYPE svg PUBLIC "-//W3C//DTD SVG 20010904//EN"
 "http://www.w3.org/TR/2001/REC-SVG-20010904/DTD/svg10.dtd">
<svg version="1.0" xmlns="http://www.w3.org/2000/svg"
 width="826.000000pt" height="826.000000pt" viewBox="0 0 826.000000 826.000000"
 preserveAspectRatio="xMidYMid meet">
<metadata>
Created by potrace 1.11, written by Peter Selinger 2001-2013
</metadata>
<g transform="translate(0.000000,826.000000) scale(0.100000,-0.100000)"
fill="#000000" stroke="none">
<path d="M6199 8092 c-2 -41 7 -124 21 -187 7 -31 69 -391 95 -555 21 -124 44
-260 50 -282 4 -16 4 -28 0 -28 -3 0 -75 14 -158 31 -84 17 -163 33 -177 35
-49 10 -186 46 -230 61 -120 40 -238 46 -475 24 -49 -4 -182 -9 -293 -10 -227
-2 -212 0 -462 -91 -80 -29 -210 -72 -290 -96 -187 -54 -216 -68 -352 -166
-62 -45 -192 -134 -288 -198 -188 -126 -240 -171 -310 -271 -25 -35 -58 -79
-74 -97 -29 -33 -32 -34 -84 -28 -30 3 -71 10 -91 15 -20 5 -58 12 -86 15 -27
3 -62 8 -76 11 -116 23 -400 30 -524 13 -64 -9 -73 -13 -107 -50 -43 -48 -65
-125 -74 -265 -6 -104 -38 -222 -59 -224 -8 -1 -19 -3 -25 -4 -5 -1 -15 -3
-21 -4 -5 0 -8 -5 -5 -10 11 -17 -26 -101 -54 -121 -24 -17 -55 -67 -134 -218
-27 -50 -34 -266 -12 -344 8 -29 16 -93 17 -143 2 -49 6 -102 10 -118 6 -22 3
-33 -17 -54 -21 -23 -32 -26 -101 -28 -53 -2 -101 4 -148 17 -106 30 -108 30
-192 3 -102 -34 -99 -33 -238 -35 l-120 -1 -41 -37 c-104 -94 -102 -93 -167
-98 -34 -3 -82 -7 -107 -9 -25 -2 -52 -4 -61 -4 -9 -1 -36 -18 -60 -40 -24
-21 -68 -60 -97 -85 -30 -26 -91 -71 -137 -100 -83 -55 -116 -89 -153 -161
-12 -22 -58 -80 -102 -130 -45 -49 -90 -101 -100 -115 l-19 -26 33 0 c43 0
170 -72 244 -139 31 -28 72 -57 89 -64 l33 -13 -37 -19 c-21 -11 -47 -19 -60
-19 -18 0 -59 -38 -50 -46 1 -1 31 3 66 11 35 7 77 12 93 9 19 -2 31 2 35 12
4 12 11 11 42 -8 20 -12 44 -30 55 -40 10 -9 35 -25 54 -34 20 -9 57 -37 84
-62 26 -24 48 -42 48 -38 0 3 11 -1 25 -10 14 -9 25 -20 25 -25 0 -5 -11 -11
-25 -15 -14 -3 -25 -10 -25 -15 0 -5 -7 -9 -15 -9 -36 0 -301 -116 -350 -154
-19 -14 -19 -16 -2 -33 9 -9 17 -12 17 -6 0 14 154 90 280 138 65 25 107 35
133 33 20 -2 37 -1 37 2 0 4 6 14 13 24 13 18 15 18 62 -3 27 -12 100 -56 162
-98 l114 -76 -43 -44 c-37 -38 -42 -48 -39 -80 4 -45 48 -135 90 -182 16 -19
28 -38 25 -42 -2 -4 4 -7 13 -7 10 1 54 -2 98 -6 67 -5 93 -2 162 18 56 16 83
20 86 12 2 -6 5 -48 6 -94 1 -45 4 -90 6 -100 1 -9 6 -73 9 -142 11 -206 26
-425 31 -451 2 -9 6 -40 10 -70 3 -30 13 -82 21 -117 7 -34 16 -76 19 -94 3
-17 8 -34 10 -38 8 -13 15 -66 20 -139 3 -46 12 -89 26 -115 30 -60 90 -123
124 -132 17 -3 37 -13 46 -21 26 -22 179 -93 244 -114 107 -33 201 -42 365
-36 272 11 438 57 575 159 55 41 62 48 122 128 48 66 89 140 128 235 49 119
58 118 51 -7 -4 -59 -8 -113 -11 -120 -2 -7 -6 -31 -9 -53 -6 -43 -8 -53 -21
-100 -23 -88 -126 -226 -209 -280 -67 -45 -227 -102 -361 -130 -44 -9 -100
-23 -125 -30 -25 -8 -65 -13 -90 -13 -74 2 -356 -23 -430 -37 -141 -27 -304
-100 -308 -137 -1 -7 -4 -28 -8 -45 -5 -28 -1 -38 29 -68 20 -20 39 -50 42
-68 4 -17 16 -47 28 -66 41 -67 210 -151 387 -192 25 -6 52 -12 60 -14 18 -5
159 -36 180 -40 14 -2 55 -9 133 -21 15 -2 39 -6 55 -9 30 -5 170 -22 247 -30
28 -3 68 -7 90 -10 22 -2 81 -7 130 -10 50 -3 108 -8 130 -10 22 -2 103 -6
180 -10 151 -6 262 -14 310 -22 27 -4 87 -7 390 -18 50 -1 135 3 190 10 134
17 241 27 430 40 127 8 214 15 260 20 22 2 67 7 100 10 33 4 71 8 85 10 14 3
50 7 80 10 30 3 66 7 80 10 14 3 41 7 60 10 19 3 71 12 115 20 44 8 98 17 120
20 85 11 152 28 239 60 140 51 167 64 227 109 63 46 99 91 96 121 -1 13 8 25
30 36 47 24 60 36 72 71 6 17 8 29 5 25 -4 -3 -16 8 -28 26 -14 21 -36 37 -66
46 -25 8 -72 25 -105 37 -74 28 -241 57 -394 70 -31 2 -76 8 -101 14 -25 5
-61 12 -80 14 -61 9 -188 37 -365 82 -11 3 -31 7 -45 10 -175 36 -326 133
-411 265 -36 56 -32 71 33 131 53 49 87 57 111 26 82 -103 170 -157 302 -183
165 -33 588 16 745 86 121 55 202 173 304 446 25 67 56 153 68 192 21 69 23
71 69 87 26 10 52 27 58 38 11 21 8 -143 -5 -299 -3 -33 -7 -111 -9 -174 -4
-130 5 -160 56 -186 40 -21 58 -67 63 -165 3 -44 7 -83 10 -88 2 -4 7 -27 11
-51 4 -25 17 -72 30 -106 12 -34 21 -75 19 -91 -2 -20 0 -17 8 10 8 29 8 52
-1 88 -21 94 -11 170 31 230 l19 27 -31 16 c-30 16 -38 29 -21 40 5 3 13 20
17 38 3 17 15 43 25 56 11 13 23 40 29 60 16 60 19 86 35 341 16 251 27 364
35 380 11 20 98 84 305 223 176 119 234 167 276 227 13 19 29 42 36 50 37 48
110 138 184 229 180 221 177 216 275 478 35 95 87 221 114 280 64 140 77 203
84 403 3 91 8 179 10 195 16 117 21 183 21 275 0 120 -4 145 -44 284 -30 105
-40 144 -47 186 -8 41 -44 232 -55 284 -6 30 -35 91 -77 160 -37 61 -69 115
-72 121 -3 5 -17 28 -31 50 -15 23 -57 99 -94 170 -37 72 -71 134 -76 139 -5
6 -9 25 -9 43 0 25 -7 37 -27 50 -57 36 -245 205 -355 320 -27 28 -76 78 -108
111 -32 33 -65 79 -74 103 -17 43 -17 44 -64 44 -39 0 -74 13 -193 72 -79 39
-171 89 -205 111 -59 38 -61 41 -61 83 1 72 -24 253 -53 389 -5 25 -12 61 -14
80 -3 19 -10 60 -16 90 -6 30 -13 69 -16 85 -14 80 -49 204 -67 240 -12 22
-20 45 -19 52 5 22 -38 93 -76 129 -20 19 -58 48 -84 64 l-48 30 -1 -28z"/>
<path d="M6742 860 c0 -19 2 -27 5 -17 2 9 2 25 0 35 -3 9 -5 1 -5 -18z"/>
</g>
</svg>
